<svg xmlns="http://www.w3.org/2000/svg" xml:space="preserve" xmlns:xlink="http://www.w3.org/1999/xlink" style="max-width: 100%;height: auto;" width="1068.1666666667" height="1200.6875" viewBox="0 0 1068.1666666667 1200.6875">
<rect width="899.04027777778" height="899.04027777778" fill="#ffffff" x="89.013888888889" y="221.53472222222" />
<g transform="scale(44.506944444444)" fill="#000000"><path d="M0,6h1.7v19.3h20.7V6H24l-1-2l1-2h-1V0H1v2H0l1,2L0,6z M22,25H2V6V5h20v1V25z"/></g>
<g transform="translate(0,132.52083333333)" fill="#000000">
<g transform="translate(365.08333333333,157.08333333333) scale(4.4633333333333)"><path d="M0.8,0L0.8,0C2.2,0,6,4.6,6,6l0,0H0V0.8C0,0.4,0.4,0,0.8,0z"/></g>
<g transform="translate(417.08333333333,157.08333333333) scale(4.4633333333333)"><path d="M6,6H0V2c0-1.1,0.9-2,2-2h4V6z"/></g>
<g transform="translate(443.08333333333,157.08333333333) scale(4.4633333333333)"><path d="M0,6V0h4c1.1,0,2,0.9,2,2v4H0z"/></g>
<g transform="translate(599.08333333333,157.08333333333) scale(4.4633333333333)"><path d="M6,6H0V2c0-1.1,0.9-2,2-2h4V6z"/></g>
<g transform="translate(625.08333333333,157.08333333333) scale(4.4633333333333)"><path d="M6,0.8L6,0.8C6,2.2,1.4,6,0,6l0,0V0h5.2C5.6,0,6,0.4,6,0.8z"/></g>
<g transform="translate(677.08333333333,157.08333333333) scale(4.4633333333333)"><path d="M5.4,2.8C4.5,1.1,2.6-0.1,1.2,0c-1.3,0.1-1.6,1.6-0.7,3.2c1,1.7,2.8,2.9,4.2,2.8C6.1,5.9,6.4,4.4,5.4,2.8z"/></g>
<g transform="translate(365.08333333333,183.08333333333) scale(4.4633333333333)"><rect width="6" height="6"/></g>
<g transform="translate(391.08333333333,183.08333333333) scale(4.4633333333333)"><rect width="6" height="6"/></g>
<g transform="translate(417.08333333333,183.08333333333) scale(4.4633333333333)"><rect width="6" height="6"/></g>
<g transform="translate(443.08333333333,183.08333333333) scale(4.4633333333333)"><path d="M0,0h6v4c0,1.1-0.9,2-2,2H0V0z"/></g>
<g transform="translate(521.08333333333,183.08333333333) scale(4.4633333333333)"><path d="M0,5.2L0,5.2C0,3.8,4.6,0,6,0l0,0v6H0.8C0.4,6,0,5.6,0,5.2z"/></g>
<g transform="translate(547.08333333333,183.08333333333) scale(4.4633333333333)"><rect width="6" height="6"/></g>
<g transform="translate(573.08333333333,183.08333333333) scale(4.4633333333333)"><rect width="6" height="6"/></g>
<g transform="translate(599.08333333333,183.08333333333) scale(4.4633333333333)"><path d="M0,0h6v4c0,1.1-0.9,2-2,2H0V0z"/></g>
<g transform="translate(651.08333333333,183.08333333333) scale(4.4633333333333)"><path d="M0.8,0L0.8,0C2.2,0,6,4.6,6,6l0,0H0V0.8C0,0.4,0.4,0,0.8,0z"/></g>
<g transform="translate(365.08333333333,209.08333333333) scale(4.4633333333333)"><path d="M5.2,6L5.2,6C3.8,6,0,1.4,0,0l0,0h6v5.2C6,5.6,5.6,6,5.2,6z"/></g>
<g transform="translate(469.08333333333,209.08333333333) scale(4.4633333333333)"><path d="M5.4,2.8C4.5,1.1,2.6-0.1,1.2,0c-1.3,0.1-1.6,1.6-0.7,3.2c1,1.7,2.8,2.9,4.2,2.8C6.1,5.9,6.4,4.4,5.4,2.8z"/></g>
<g transform="translate(625.08333333333,209.08333333333) scale(4.4633333333333)"><path d="M0,5.2L0,5.2C0,3.8,4.6,0,6,0l0,0v6H0.8C0.4,6,0,5.6,0,5.2z"/></g>
<g transform="translate(651.08333333333,209.08333333333) scale(4.4633333333333)"><rect width="6" height="6"/></g>
<g transform="translate(677.08333333333,209.08333333333) scale(4.4633333333333)"><path d="M6,0.8L6,0.8C6,2.2,1.4,6,0,6l0,0V0h5.2C5.6,0,6,0.4,6,0.8z"/></g>
<g transform="translate(417.08333333333,235.08333333333) scale(4.4633333333333)"><path d="M6,6H0V2c0-1.1,0.9-2,2-2h4V6z"/></g>
<g transform="translate(443.08333333333,235.08333333333) scale(4.4633333333333)"><path d="M0,6V0h4c1.1,0,2,0.9,2,2v4H0z"/></g>
<g transform="translate(495.08333333333,235.08333333333) scale(4.4633333333333)"><path d="M0,5.2L0,5.2C0,3.8,4.6,0,6,0l0,0v6H0.8C0.4,6,0,5.6,0,5.2z"/></g>
<g transform="translate(521.08333333333,235.08333333333) scale(4.4633333333333)"><rect width="6" height="6"/></g>
<g transform="translate(547.08333333333,235.08333333333) scale(4.4633333333333)"><rect width="6" height="6"/></g>
<g transform="translate(573.08333333333,235.08333333333) scale(4.4633333333333)"><rect width="6" height="6"/></g>
<g transform="translate(599.08333333333,235.08333333333) scale(4.4633333333333)"><path d="M6,0.8L6,0.8C6,2.2,1.4,6,0,6l0,0V0h5.2C5.6,0,6,0.4,6,0.8z"/></g>
<g transform="translate(651.08333333333,235.08333333333) scale(4.4633333333333)"><rect width="6" height="6"/></g>
<g transform="translate(391.08333333333,261.08333333333) scale(4.4633333333333)"><path d="M0,5.2L0,5.2C0,3.8,4.6,0,6,0l0,0v6H0.8C0.4,6,0,5.6,0,5.2z"/></g>
<g transform="translate(417.08333333333,261.08333333333) scale(4.4633333333333)"><rect width="6" height="6"/></g>
<g transform="translate(443.08333333333,261.08333333333) scale(4.4633333333333)"><rect width="6" height="6"/></g>
<g transform="translate(469.08333333333,261.08333333333) scale(4.4633333333333)"><path d="M0,6V0h4c1.1,0,2,0.9,2,2v4H0z"/></g>
<g transform="translate(573.08333333333,261.08333333333) scale(4.4633333333333)"><rect width="6" height="6"/></g>
<g transform="translate(625.08333333333,261.08333333333) scale(4.4633333333333)"><path d="M6,6H0V2c0-1.1,0.9-2,2-2h4V6z"/></g>
<g transform="translate(651.08333333333,261.08333333333) scale(4.4633333333333)"><path d="M0,0h6v4c0,1.1-0.9,2-2,2H0V0z"/></g>
<g transform="translate(365.08333333333,287.08333333333) scale(4.4633333333333)"><path d="M0.8,0L0.8,0C2.2,0,6,4.6,6,6l0,0H0V0.8C0,0.4,0.4,0,0.8,0z"/></g>
<g transform="translate(469.08333333333,287.08333333333) scale(4.4633333333333)"><rect width="6" height="6"/></g>
<g transform="translate(495.08333333333,287.08333333333) scale(4.4633333333333)"><rect width="6" height="6"/></g>
<g transform="translate(521.08333333333,287.08333333333) scale(4.4633333333333)"><rect width="6" height="6"/></g>
<g transform="translate(547.08333333333,287.08333333333) scale(4.4633333333333)"><rect width="6" height="6"/></g>
<g transform="translate(573.08333333333,287.08333333333) scale(4.4633333333333)"><rect width="6" height="6"/></g>
<g transform="translate(625.08333333333,287.08333333333) scale(4.4633333333333)"><rect width="6" height="6"/></g>
<g transform="translate(365.08333333333,313.08333333333) scale(4.4633333333333)"><rect width="6" height="6"/></g>
<g transform="translate(417.08333333333,313.08333333333) scale(4.4633333333333)"><path d="M0.8,0L0.8,0C2.2,0,6,4.6,6,6l0,0H0V0.8C0,0.4,0.4,0,0.8,0z"/></g>
<g transform="translate(469.08333333333,313.08333333333) scale(4.4633333333333)"><rect width="6" height="6"/></g>
<g transform="translate(521.08333333333,313.08333333333) scale(4.4633333333333)"><path d="M5.2,6L5.2,6C3.8,6,0,1.4,0,0l0,0h6v5.2C6,5.6,5.6,6,5.2,6z"/></g>
<g transform="translate(573.08333333333,313.08333333333) scale(4.4633333333333)"><rect width="6" height="6"/></g>
<g transform="translate(625.08333333333,313.08333333333) scale(4.4633333333333)"><path d="M5.2,6L5.2,6C3.8,6,0,1.4,0,0l0,0h6v5.2C6,5.6,5.6,6,5.2,6z"/></g>
<g transform="translate(677.08333333333,313.08333333333) scale(4.4633333333333)"><path d="M5.4,2.8C4.5,1.1,2.6-0.1,1.2,0c-1.3,0.1-1.6,1.6-0.7,3.2c1,1.7,2.8,2.9,4.2,2.8C6.1,5.9,6.4,4.4,5.4,2.8z"/></g>
<g transform="translate(365.08333333333,339.08333333333) scale(4.4633333333333)"><rect width="6" height="6"/></g>
<g transform="translate(417.08333333333,339.08333333333) scale(4.4633333333333)"><rect width="6" height="6"/></g>
<g transform="translate(443.08333333333,339.08333333333) scale(4.4633333333333)"><rect width="6" height="6"/></g>
<g transform="translate(469.08333333333,339.08333333333) scale(4.4633333333333)"><rect width="6" height="6"/></g>
<g transform="translate(495.08333333333,339.08333333333) scale(4.4633333333333)"><path d="M0,6V0h4c1.1,0,2,0.9,2,2v4H0z"/></g>
<g transform="translate(547.08333333333,339.08333333333) scale(4.4633333333333)"><path d="M6,6H0V2c0-1.1,0.9-2,2-2h4V6z"/></g>
<g transform="translate(573.08333333333,339.08333333333) scale(4.4633333333333)"><path d="M0,0h6v4c0,1.1-0.9,2-2,2H0V0z"/></g>
<g transform="translate(651.08333333333,339.08333333333) scale(4.4633333333333)"><path d="M5.4,2.8C4.5,1.1,2.6-0.1,1.2,0c-1.3,0.1-1.6,1.6-0.7,3.2c1,1.7,2.8,2.9,4.2,2.8C6.1,5.9,6.4,4.4,5.4,2.8z"/></g>
<g transform="translate(209.08333333333,365.08333333333) scale(4.4633333333333)"><path d="M6,6H0V2c0-1.1,0.9-2,2-2h4V6z"/></g>
<g transform="translate(235.08333333333,365.08333333333) scale(4.4633333333333)"><rect width="6" height="6"/></g>
<g transform="translate(261.08333333333,365.08333333333) scale(4.4633333333333)"><path d="M6,0.8L6,0.8C6,2.2,1.4,6,0,6l0,0V0h5.2C5.6,0,6,0.4,6,0.8z"/></g>
<g transform="translate(313.08333333333,365.08333333333) scale(4.4633333333333)"><path d="M5.4,2.8C4.5,1.1,2.6-0.1,1.2,0c-1.3,0.1-1.6,1.6-0.7,3.2c1,1.7,2.8,2.9,4.2,2.8C6.1,5.9,6.4,4.4,5.4,2.8z"/></g>
<g transform="translate(365.08333333333,365.08333333333) scale(4.4633333333333)"><rect width="6" height="6"/></g>
<g transform="translate(417.08333333333,365.08333333333) scale(4.4633333333333)"><path d="M5.2,6L5.2,6C3.8,6,0,1.4,0,0l0,0h6v5.2C6,5.6,5.6,6,5.2,6z"/></g>
<g transform="translate(495.08333333333,365.08333333333) scale(4.4633333333333)"><path d="M6,0v6H2C0.9,6,0,5.1,0,4V0H6z"/></g>
<g transform="translate(521.08333333333,365.08333333333) scale(4.4633333333333)"><rect width="6" height="6"/></g>
<g transform="translate(547.08333333333,365.08333333333) scale(4.4633333333333)"><path d="M0,0h6v4c0,1.1-0.9,2-2,2H0V0z"/></g>
<g transform="translate(625.08333333333,365.08333333333) scale(4.4633333333333)"><path d="M5.4,2.8C4.5,1.1,2.6-0.1,1.2,0c-1.3,0.1-1.6,1.6-0.7,3.2c1,1.7,2.8,2.9,4.2,2.8C6.1,5.9,6.4,4.4,5.4,2.8z"/></g>
<g transform="translate(703.08333333333,365.08333333333) scale(4.4633333333333)"><path d="M6,6H0V2c0-1.1,0.9-2,2-2h4V6z"/></g>
<g transform="translate(729.08333333333,365.08333333333) scale(4.4633333333333)"><rect width="6" height="6"/></g>
<g transform="translate(755.08333333333,365.08333333333) scale(4.4633333333333)"><path d="M0,6V0h4c1.1,0,2,0.9,2,2v4H0z"/></g>
<g transform="translate(833.08333333333,365.08333333333) scale(4.4633333333333)"><path d="M6,6H0V2c0-1.1,0.9-2,2-2h4V6z"/></g>
<g transform="translate(859.08333333333,365.08333333333) scale(4.4633333333333)"><rect width="6" height="6"/></g>
<g transform="translate(885.08333333333,365.08333333333) scale(4.4633333333333)"><path d="M0,6V0h4c1.1,0,2,0.9,2,2v4H0z"/></g>
<g transform="translate(209.08333333333,391.08333333333) scale(4.4633333333333)"><rect width="6" height="6"/></g>
<g transform="translate(235.08333333333,391.08333333333) scale(4.4633333333333)"><path d="M0,0h6v4c0,1.1-0.9,2-2,2H0V0z"/></g>
<g transform="translate(365.08333333333,391.08333333333) scale(4.4633333333333)"><rect width="6" height="6"/></g>
<g transform="translate(391.08333333333,391.08333333333) scale(4.4633333333333)"><path d="M6,0.8L6,0.8C6,2.2,1.4,6,0,6l0,0V0h5.2C5.6,0,6,0.4,6,0.8z"/></g>
<g transform="translate(443.08333333333,391.08333333333) scale(4.4633333333333)"><path d="M5.4,2.8C4.5,1.1,2.6-0.1,1.2,0c-1.3,0.1-1.6,1.6-0.7,3.2c1,1.7,2.8,2.9,4.2,2.8C6.1,5.9,6.4,4.4,5.4,2.8z"/></g>
<g transform="translate(573.08333333333,391.08333333333) scale(4.4633333333333)"><path d="M6,6H0V2c0-1.1,0.9-2,2-2h4V6z"/></g>
<g transform="translate(599.08333333333,391.08333333333) scale(4.4633333333333)"><path d="M6,0.8L6,0.8C6,2.2,1.4,6,0,6l0,0V0h5.2C5.6,0,6,0.4,6,0.8z"/></g>
<g transform="translate(703.08333333333,391.08333333333) scale(4.4633333333333)"><rect width="6" height="6"/></g>
<g transform="translate(729.08333333333,391.08333333333) scale(4.4633333333333)"><rect width="6" height="6"/></g>
<g transform="translate(755.08333333333,391.08333333333) scale(4.4633333333333)"><rect width="6" height="6"/></g>
<g transform="translate(781.08333333333,391.08333333333) scale(4.4633333333333)"><rect width="6" height="6"/></g>
<g transform="translate(807.08333333333,391.08333333333) scale(4.4633333333333)"><rect width="6" height="6"/></g>
<g transform="translate(833.08333333333,391.08333333333) scale(4.4633333333333)"><rect width="6" height="6"/></g>
<g transform="translate(885.08333333333,391.08333333333) scale(4.4633333333333)"><path d="M5.2,6L5.2,6C3.8,6,0,1.4,0,0l0,0h6v5.2C6,5.6,5.6,6,5.2,6z"/></g>
<g transform="translate(183.08333333333,417.08333333333) scale(4.4633333333333)"><path d="M0,5.2L0,5.2C0,3.8,4.6,0,6,0l0,0v6H0.8C0.4,6,0,5.6,0,5.2z"/></g>
<g transform="translate(209.08333333333,417.08333333333) scale(4.4633333333333)"><path d="M0,0h6v4c0,1.1-0.9,2-2,2H0V0z"/></g>
<g transform="translate(261.08333333333,417.08333333333) scale(4.4633333333333)"><path d="M0,5.2L0,5.2C0,3.8,4.6,0,6,0l0,0v6H0.8C0.4,6,0,5.6,0,5.2z"/></g>
<g transform="translate(287.08333333333,417.08333333333) scale(4.4633333333333)"><rect width="6" height="6"/></g>
<g transform="translate(313.08333333333,417.08333333333) scale(4.4633333333333)"><path d="M6,0.8L6,0.8C6,2.2,1.4,6,0,6l0,0V0h5.2C5.6,0,6,0.4,6,0.8z"/></g>
<g transform="translate(365.08333333333,417.08333333333) scale(4.4633333333333)"><path d="M5.2,6L5.2,6C3.8,6,0,1.4,0,0l0,0h6v5.2C6,5.6,5.6,6,5.2,6z"/></g>
<g transform="translate(417.08333333333,417.08333333333) scale(4.4633333333333)"><path d="M0.8,0L0.8,0C2.2,0,6,4.6,6,6l0,0H0V0.8C0,0.4,0.4,0,0.8,0z"/></g>
<g transform="translate(469.08333333333,417.08333333333) scale(4.4633333333333)"><path d="M6,6H0V2c0-1.1,0.9-2,2-2h4V6z"/></g>
<g transform="translate(495.08333333333,417.08333333333) scale(4.4633333333333)"><rect width="6" height="6"/></g>
<g transform="translate(521.08333333333,417.08333333333) scale(4.4633333333333)"><path d="M6,0.8L6,0.8C6,2.2,1.4,6,0,6l0,0V0h5.2C5.6,0,6,0.4,6,0.8z"/></g>
<g transform="translate(573.08333333333,417.08333333333) scale(4.4633333333333)"><path d="M5.2,6L5.2,6C3.8,6,0,1.4,0,0l0,0h6v5.2C6,5.6,5.6,6,5.2,6z"/></g>
<g transform="translate(677.08333333333,417.08333333333) scale(4.4633333333333)"><path d="M0,5.2L0,5.2C0,3.8,4.6,0,6,0l0,0v6H0.8C0.4,6,0,5.6,0,5.2z"/></g>
<g transform="translate(703.08333333333,417.08333333333) scale(4.4633333333333)"><rect width="6" height="6"/></g>
<g transform="translate(729.08333333333,417.08333333333) scale(4.4633333333333)"><rect width="6" height="6"/></g>
<g transform="translate(755.08333333333,417.08333333333) scale(4.4633333333333)"><rect width="6" height="6"/></g>
<g transform="translate(833.08333333333,417.08333333333) scale(4.4633333333333)"><path d="M5.2,6L5.2,6C3.8,6,0,1.4,0,0l0,0h6v5.2C6,5.6,5.6,6,5.2,6z"/></g>
<g transform="translate(235.08333333333,443.08333333333) scale(4.4633333333333)"><path d="M0.8,0L0.8,0C2.2,0,6,4.6,6,6l0,0H0V0.8C0,0.4,0.4,0,0.8,0z"/></g>
<g transform="translate(391.08333333333,443.08333333333) scale(4.4633333333333)"><path d="M0,5.2L0,5.2C0,3.8,4.6,0,6,0l0,0v6H0.8C0.4,6,0,5.6,0,5.2z"/></g>
<g transform="translate(417.08333333333,443.08333333333) scale(4.4633333333333)"><rect width="6" height="6"/></g>
<g transform="translate(443.08333333333,443.08333333333) scale(4.4633333333333)"><rect width="6" height="6"/></g>
<g transform="translate(469.08333333333,443.08333333333) scale(4.4633333333333)"><path d="M0,0h6v4c0,1.1-0.9,2-2,2H0V0z"/></g>
<g transform="translate(547.08333333333,443.08333333333) scale(4.4633333333333)"><path d="M5.4,2.8C4.5,1.1,2.6-0.1,1.2,0c-1.3,0.1-1.6,1.6-0.7,3.2c1,1.7,2.8,2.9,4.2,2.8C6.1,5.9,6.4,4.4,5.4,2.8z"/></g>
<g transform="translate(599.08333333333,443.08333333333) scale(4.4633333333333)"><path d="M5.4,2.8C4.5,1.1,2.6-0.1,1.2,0c-1.3,0.1-1.6,1.6-0.7,3.2c1,1.7,2.8,2.9,4.2,2.8C6.1,5.9,6.4,4.4,5.4,2.8z"/></g>
<g transform="translate(703.08333333333,443.08333333333) scale(4.4633333333333)"><rect width="6" height="6"/></g>
<g transform="translate(729.08333333333,443.08333333333) scale(4.4633333333333)"><rect width="6" height="6"/></g>
<g transform="translate(755.08333333333,443.08333333333) scale(4.4633333333333)"><rect width="6" height="6"/></g>
<g transform="translate(781.08333333333,443.08333333333) scale(4.4633333333333)"><rect width="6" height="6"/></g>
<g transform="translate(807.08333333333,443.08333333333) scale(4.4633333333333)"><path d="M6,0.8L6,0.8C6,2.2,1.4,6,0,6l0,0V0h5.2C5.6,0,6,0.4,6,0.8z"/></g>
<g transform="translate(859.08333333333,443.08333333333) scale(4.4633333333333)"><path d="M0.8,0L0.8,0C2.2,0,6,4.6,6,6l0,0H0V0.8C0,0.4,0.4,0,0.8,0z"/></g>
<g transform="translate(183.08333333333,469.08333333333) scale(4.4633333333333)"><path d="M0,5.2L0,5.2C0,3.8,4.6,0,6,0l0,0v6H0.8C0.4,6,0,5.6,0,5.2z"/></g>
<g transform="translate(209.08333333333,469.08333333333) scale(4.4633333333333)"><rect width="6" height="6"/></g>
<g transform="translate(235.08333333333,469.08333333333) scale(4.4633333333333)"><rect width="6" height="6"/></g>
<g transform="translate(261.08333333333,469.08333333333) scale(4.4633333333333)"><rect width="6" height="6"/></g>
<g transform="translate(287.08333333333,469.08333333333) scale(4.4633333333333)"><rect width="6" height="6"/></g>
<g transform="translate(313.08333333333,469.08333333333) scale(4.4633333333333)"><path d="M6,0.8L6,0.8C6,2.2,1.4,6,0,6l0,0V0h5.2C5.6,0,6,0.4,6,0.8z"/></g>
<g transform="translate(365.08333333333,469.08333333333) scale(4.4633333333333)"><path d="M5.4,2.8C4.5,1.1,2.6-0.1,1.2,0c-1.3,0.1-1.6,1.6-0.7,3.2c1,1.7,2.8,2.9,4.2,2.8C6.1,5.9,6.4,4.4,5.4,2.8z"/></g>
<g transform="translate(443.08333333333,469.08333333333) scale(4.4633333333333)"><path d="M5.2,6L5.2,6C3.8,6,0,1.4,0,0l0,0h6v5.2C6,5.6,5.6,6,5.2,6z"/></g>
<g transform="translate(495.08333333333,469.08333333333) scale(4.4633333333333)"><path d="M0,5.2L0,5.2C0,3.8,4.6,0,6,0l0,0v6H0.8C0.4,6,0,5.6,0,5.2z"/></g>
<g transform="translate(521.08333333333,469.08333333333) scale(4.4633333333333)"><path d="M6,0.8L6,0.8C6,2.2,1.4,6,0,6l0,0V0h5.2C5.6,0,6,0.4,6,0.8z"/></g>
<g transform="translate(573.08333333333,469.08333333333) scale(4.4633333333333)"><path d="M5.4,2.8C4.5,1.1,2.6-0.1,1.2,0c-1.3,0.1-1.6,1.6-0.7,3.2c1,1.7,2.8,2.9,4.2,2.8C6.1,5.9,6.4,4.4,5.4,2.8z"/></g>
<g transform="translate(651.08333333333,469.08333333333) scale(4.4633333333333)"><path d="M6,6H0V2c0-1.1,0.9-2,2-2h4V6z"/></g>
<g transform="translate(677.08333333333,469.08333333333) scale(4.4633333333333)"><rect width="6" height="6"/></g>
<g transform="translate(703.08333333333,469.08333333333) scale(4.4633333333333)"><rect width="6" height="6"/></g>
<g transform="translate(755.08333333333,469.08333333333) scale(4.4633333333333)"><path d="M5.2,6L5.2,6C3.8,6,0,1.4,0,0l0,0h6v5.2C6,5.6,5.6,6,5.2,6z"/></g>
<g transform="translate(833.08333333333,469.08333333333) scale(4.4633333333333)"><path d="M0,5.2L0,5.2C0,3.8,4.6,0,6,0l0,0v6H0.8C0.4,6,0,5.6,0,5.2z"/></g>
<g transform="translate(859.08333333333,469.08333333333) scale(4.4633333333333)"><rect width="6" height="6"/></g>
<g transform="translate(885.08333333333,469.08333333333) scale(4.4633333333333)"><path d="M0,6V0h4c1.1,0,2,0.9,2,2v4H0z"/></g>
<g transform="translate(157.08333333333,495.08333333333) scale(4.4633333333333)"><path d="M5.4,2.8C4.5,1.1,2.6-0.1,1.2,0c-1.3,0.1-1.6,1.6-0.7,3.2c1,1.7,2.8,2.9,4.2,2.8C6.1,5.9,6.4,4.4,5.4,2.8z"/></g>
<g transform="translate(209.08333333333,495.08333333333) scale(4.4633333333333)"><path d="M6,0v6H2C0.9,6,0,5.1,0,4V0H6z"/></g>
<g transform="translate(235.08333333333,495.08333333333) scale(4.4633333333333)"><rect width="6" height="6"/></g>
<g transform="translate(261.08333333333,495.08333333333) scale(4.4633333333333)"><rect width="6" height="6"/></g>
<g transform="translate(287.08333333333,495.08333333333) scale(4.4633333333333)"><path d="M0,0h6v4c0,1.1-0.9,2-2,2H0V0z"/></g>
<g transform="translate(339.08333333333,495.08333333333) scale(4.4633333333333)"><path d="M5.4,2.8C4.5,1.1,2.6-0.1,1.2,0c-1.3,0.1-1.6,1.6-0.7,3.2c1,1.7,2.8,2.9,4.2,2.8C6.1,5.9,6.4,4.4,5.4,2.8z"/></g>
<g transform="translate(417.08333333333,495.08333333333) scale(4.4633333333333)"><path d="M0.8,0L0.8,0C2.2,0,6,4.6,6,6l0,0H0V0.8C0,0.4,0.4,0,0.8,0z"/></g>
<g transform="translate(469.08333333333,495.08333333333) scale(4.4633333333333)"><path d="M0.8,0L0.8,0C2.2,0,6,4.6,6,6l0,0H0V0.8C0,0.4,0.4,0,0.8,0z"/></g>
<g transform="translate(547.08333333333,495.08333333333) scale(4.4633333333333)"><path d="M5.4,2.8C4.5,1.1,2.6-0.1,1.2,0c-1.3,0.1-1.6,1.6-0.7,3.2c1,1.7,2.8,2.9,4.2,2.8C6.1,5.9,6.4,4.4,5.4,2.8z"/></g>
<g transform="translate(599.08333333333,495.08333333333) scale(4.4633333333333)"><path d="M0,5.2L0,5.2C0,3.8,4.6,0,6,0l0,0v6H0.8C0.4,6,0,5.6,0,5.2z"/></g>
<g transform="translate(625.08333333333,495.08333333333) scale(4.4633333333333)"><rect width="6" height="6"/></g>
<g transform="translate(651.08333333333,495.08333333333) scale(4.4633333333333)"><rect width="6" height="6"/></g>
<g transform="translate(677.08333333333,495.08333333333) scale(4.4633333333333)"><rect width="6" height="6"/></g>
<g transform="translate(703.08333333333,495.08333333333) scale(4.4633333333333)"><rect width="6" height="6"/></g>
<g transform="translate(729.08333333333,495.08333333333) scale(4.4633333333333)"><path d="M0,6V0h4c1.1,0,2,0.9,2,2v4H0z"/></g>
<g transform="translate(781.08333333333,495.08333333333) scale(4.4633333333333)"><path d="M0,5.2L0,5.2C0,3.8,4.6,0,6,0l0,0v6H0.8C0.4,6,0,5.6,0,5.2z"/></g>
<g transform="translate(807.08333333333,495.08333333333) scale(4.4633333333333)"><path d="M6,0.8L6,0.8C6,2.2,1.4,6,0,6l0,0V0h5.2C5.6,0,6,0.4,6,0.8z"/></g>
<g transform="translate(859.08333333333,495.08333333333) scale(4.4633333333333)"><path d="M6,0v6H2C0.9,6,0,5.1,0,4V0H6z"/></g>
<g transform="translate(885.08333333333,495.08333333333) scale(4.4633333333333)"><path d="M0,0h6v4c0,1.1-0.9,2-2,2H0V0z"/></g>
<g transform="translate(183.08333333333,521.08333333333) scale(4.4633333333333)"><path d="M0.8,0L0.8,0C2.2,0,6,4.6,6,6l0,0H0V0.8C0,0.4,0.4,0,0.8,0z"/></g>
<g transform="translate(313.08333333333,521.08333333333) scale(4.4633333333333)"><path d="M5.4,2.8C4.5,1.1,2.6-0.1,1.2,0c-1.3,0.1-1.6,1.6-0.7,3.2c1,1.7,2.8,2.9,4.2,2.8C6.1,5.9,6.4,4.4,5.4,2.8z"/></g>
<g transform="translate(365.08333333333,521.08333333333) scale(4.4633333333333)"><path d="M0.8,0L0.8,0C2.2,0,6,4.6,6,6l0,0H0V0.8C0,0.4,0.4,0,0.8,0z"/></g>
<g transform="translate(417.08333333333,521.08333333333) scale(4.4633333333333)"><rect width="6" height="6"/></g>
<g transform="translate(469.08333333333,521.08333333333) scale(4.4633333333333)"><rect width="6" height="6"/></g>
<g transform="translate(677.08333333333,521.08333333333) scale(4.4633333333333)"><path d="M6,0v6H2C0.9,6,0,5.1,0,4V0H6z"/></g>
<g transform="translate(703.08333333333,521.08333333333) scale(4.4633333333333)"><rect width="6" height="6"/></g>
<g transform="translate(729.08333333333,521.08333333333) scale(4.4633333333333)"><rect width="6" height="6"/></g>
<g transform="translate(755.08333333333,521.08333333333) scale(4.4633333333333)"><path d="M6,0.8L6,0.8C6,2.2,1.4,6,0,6l0,0V0h5.2C5.6,0,6,0.4,6,0.8z"/></g>
<g transform="translate(183.08333333333,547.08333333333) scale(4.4633333333333)"><path d="M6,0v6H2C0.9,6,0,5.1,0,4V0H6z"/></g>
<g transform="translate(209.08333333333,547.08333333333) scale(4.4633333333333)"><path d="M0,6V0h4c1.1,0,2,0.9,2,2v4H0z"/></g>
<g transform="translate(339.08333333333,547.08333333333) scale(4.4633333333333)"><path d="M6,6H0V2c0-1.1,0.9-2,2-2h4V6z"/></g>
<g transform="translate(365.08333333333,547.08333333333) scale(4.4633333333333)"><rect width="6" height="6"/></g>
<g transform="translate(391.08333333333,547.08333333333) scale(4.4633333333333)"><rect width="6" height="6"/></g>
<g transform="translate(417.08333333333,547.08333333333) scale(4.4633333333333)"><path d="M0,0h6v4c0,1.1-0.9,2-2,2H0V0z"/></g>
<g transform="translate(469.08333333333,547.08333333333) scale(4.4633333333333)"><path d="M6,0v6H2C0.9,6,0,5.1,0,4V0H6z"/></g>
<g transform="translate(495.08333333333,547.08333333333) scale(4.4633333333333)"><path d="M0,6V0h4c1.1,0,2,0.9,2,2v4H0z"/></g>
<g transform="translate(547.08333333333,547.08333333333) scale(4.4633333333333)"><path d="M5.4,2.8C4.5,1.1,2.6-0.1,1.2,0c-1.3,0.1-1.6,1.6-0.7,3.2c1,1.7,2.8,2.9,4.2,2.8C6.1,5.9,6.4,4.4,5.4,2.8z"/></g>
<g transform="translate(599.08333333333,547.08333333333) scale(4.4633333333333)"><path d="M0,5.2L0,5.2C0,3.8,4.6,0,6,0l0,0v6H0.8C0.4,6,0,5.6,0,5.2z"/></g>
<g transform="translate(625.08333333333,547.08333333333) scale(4.4633333333333)"><path d="M0,6V0h4c1.1,0,2,0.9,2,2v4H0z"/></g>
<g transform="translate(703.08333333333,547.08333333333) scale(4.4633333333333)"><path d="M5.2,6L5.2,6C3.8,6,0,1.4,0,0l0,0h6v5.2C6,5.6,5.6,6,5.2,6z"/></g>
<g transform="translate(781.08333333333,547.08333333333) scale(4.4633333333333)"><path d="M0,5.2L0,5.2C0,3.8,4.6,0,6,0l0,0v6H0.8C0.4,6,0,5.6,0,5.2z"/></g>
<g transform="translate(807.08333333333,547.08333333333) scale(4.4633333333333)"><path d="M0,6V0h4c1.1,0,2,0.9,2,2v4H0z"/></g>
<g transform="translate(209.08333333333,573.08333333333) scale(4.4633333333333)"><path d="M6,0v6H2C0.9,6,0,5.1,0,4V0H6z"/></g>
<g transform="translate(235.08333333333,573.08333333333) scale(4.4633333333333)"><rect width="6" height="6"/></g>
<g transform="translate(261.08333333333,573.08333333333) scale(4.4633333333333)"><rect width="6" height="6"/></g>
<g transform="translate(287.08333333333,573.08333333333) scale(4.4633333333333)"><rect width="6" height="6"/></g>
<g transform="translate(313.08333333333,573.08333333333) scale(4.4633333333333)"><rect width="6" height="6"/></g>
<g transform="translate(339.08333333333,573.08333333333) scale(4.4633333333333)"><rect width="6" height="6"/></g>
<g transform="translate(391.08333333333,573.08333333333) scale(4.4633333333333)"><path d="M5.2,6L5.2,6C3.8,6,0,1.4,0,0l0,0h6v5.2C6,5.6,5.6,6,5.2,6z"/></g>
<g transform="translate(443.08333333333,573.08333333333) scale(4.4633333333333)"><path d="M5.4,2.8C4.5,1.1,2.6-0.1,1.2,0c-1.3,0.1-1.6,1.6-0.7,3.2c1,1.7,2.8,2.9,4.2,2.8C6.1,5.9,6.4,4.4,5.4,2.8z"/></g>
<g transform="translate(495.08333333333,573.08333333333) scale(4.4633333333333)"><path d="M6,0v6H2C0.9,6,0,5.1,0,4V0H6z"/></g>
<g transform="translate(521.08333333333,573.08333333333) scale(4.4633333333333)"><path d="M6,0.8L6,0.8C6,2.2,1.4,6,0,6l0,0V0h5.2C5.6,0,6,0.4,6,0.8z"/></g>
<g transform="translate(573.08333333333,573.08333333333) scale(4.4633333333333)"><path d="M0.8,0L0.8,0C2.2,0,6,4.6,6,6l0,0H0V0.8C0,0.4,0.4,0,0.8,0z"/></g>
<g transform="translate(625.08333333333,573.08333333333) scale(4.4633333333333)"><path d="M5.2,6L5.2,6C3.8,6,0,1.4,0,0l0,0h6v5.2C6,5.6,5.6,6,5.2,6z"/></g>
<g transform="translate(677.08333333333,573.08333333333) scale(4.4633333333333)"><path d="M5.4,2.8C4.5,1.1,2.6-0.1,1.2,0c-1.3,0.1-1.6,1.6-0.7,3.2c1,1.7,2.8,2.9,4.2,2.8C6.1,5.9,6.4,4.4,5.4,2.8z"/></g>
<g transform="translate(755.08333333333,573.08333333333) scale(4.4633333333333)"><path d="M0.8,0L0.8,0C2.2,0,6,4.6,6,6l0,0H0V0.8C0,0.4,0.4,0,0.8,0z"/></g>
<g transform="translate(807.08333333333,573.08333333333) scale(4.4633333333333)"><path d="M6,0v6H2C0.9,6,0,5.1,0,4V0H6z"/></g>
<g transform="translate(833.08333333333,573.08333333333) scale(4.4633333333333)"><rect width="6" height="6"/></g>
<g transform="translate(859.08333333333,573.08333333333) scale(4.4633333333333)"><rect width="6" height="6"/></g>
<g transform="translate(885.08333333333,573.08333333333) scale(4.4633333333333)"><path d="M0,6V0h4c1.1,0,2,0.9,2,2v4H0z"/></g>
<g transform="translate(157.08333333333,599.08333333333) scale(4.4633333333333)"><path d="M6,6H0V2c0-1.1,0.9-2,2-2h4V6z"/></g>
<g transform="translate(183.08333333333,599.08333333333) scale(4.4633333333333)"><path d="M6,0.8L6,0.8C6,2.2,1.4,6,0,6l0,0V0h5.2C5.6,0,6,0.4,6,0.8z"/></g>
<g transform="translate(235.08333333333,599.08333333333) scale(4.4633333333333)"><path d="M6,0v6H2C0.9,6,0,5.1,0,4V0H6z"/></g>
<g transform="translate(261.08333333333,599.08333333333) scale(4.4633333333333)"><rect width="6" height="6"/></g>
<g transform="translate(287.08333333333,599.08333333333) scale(4.4633333333333)"><rect width="6" height="6"/></g>
<g transform="translate(339.08333333333,599.08333333333) scale(4.4633333333333)"><path d="M5.2,6L5.2,6C3.8,6,0,1.4,0,0l0,0h6v5.2C6,5.6,5.6,6,5.2,6z"/></g>
<g transform="translate(469.08333333333,599.08333333333) scale(4.4633333333333)"><path d="M5.4,2.8C4.5,1.1,2.6-0.1,1.2,0c-1.3,0.1-1.6,1.6-0.7,3.2c1,1.7,2.8,2.9,4.2,2.8C6.1,5.9,6.4,4.4,5.4,2.8z"/></g>
<g transform="translate(573.08333333333,599.08333333333) scale(4.4633333333333)"><path d="M5.2,6L5.2,6C3.8,6,0,1.4,0,0l0,0h6v5.2C6,5.6,5.6,6,5.2,6z"/></g>
<g transform="translate(651.08333333333,599.08333333333) scale(4.4633333333333)"><path d="M5.4,2.8C4.5,1.1,2.6-0.1,1.2,0c-1.3,0.1-1.6,1.6-0.7,3.2c1,1.7,2.8,2.9,4.2,2.8C6.1,5.9,6.4,4.4,5.4,2.8z"/></g>
<g transform="translate(703.08333333333,599.08333333333) scale(4.4633333333333)"><path d="M5.4,2.8C4.5,1.1,2.6-0.1,1.2,0c-1.3,0.1-1.6,1.6-0.7,3.2c1,1.7,2.8,2.9,4.2,2.8C6.1,5.9,6.4,4.4,5.4,2.8z"/></g>
<g transform="translate(755.08333333333,599.08333333333) scale(4.4633333333333)"><rect width="6" height="6"/></g>
<g transform="translate(781.08333333333,599.08333333333) scale(4.4633333333333)"><path d="M0,6V0h4c1.1,0,2,0.9,2,2v4H0z"/></g>
<g transform="translate(833.08333333333,599.08333333333) scale(4.4633333333333)"><rect width="6" height="6"/></g>
<g transform="translate(859.08333333333,599.08333333333) scale(4.4633333333333)"><rect width="6" height="6"/></g>
<g transform="translate(885.08333333333,599.08333333333) scale(4.4633333333333)"><path d="M0,0h6v4c0,1.1-0.9,2-2,2H0V0z"/></g>
<g transform="translate(157.08333333333,625.08333333333) scale(4.4633333333333)"><rect width="6" height="6"/></g>
<g transform="translate(209.08333333333,625.08333333333) scale(4.4633333333333)"><path d="M5.4,2.8C4.5,1.1,2.6-0.1,1.2,0c-1.3,0.1-1.6,1.6-0.7,3.2c1,1.7,2.8,2.9,4.2,2.8C6.1,5.9,6.4,4.4,5.4,2.8z"/></g>
<g transform="translate(261.08333333333,625.08333333333) scale(4.4633333333333)"><rect width="6" height="6"/></g>
<g transform="translate(287.08333333333,625.08333333333) scale(4.4633333333333)"><rect width="6" height="6"/></g>
<g transform="translate(313.08333333333,625.08333333333) scale(4.4633333333333)"><path d="M6,0.8L6,0.8C6,2.2,1.4,6,0,6l0,0V0h5.2C5.6,0,6,0.4,6,0.8z"/></g>
<g transform="translate(365.08333333333,625.08333333333) scale(4.4633333333333)"><path d="M0,5.2L0,5.2C0,3.8,4.6,0,6,0l0,0v6H0.8C0.4,6,0,5.6,0,5.2z"/></g>
<g transform="translate(391.08333333333,625.08333333333) scale(4.4633333333333)"><path d="M6,0.8L6,0.8C6,2.2,1.4,6,0,6l0,0V0h5.2C5.6,0,6,0.4,6,0.8z"/></g>
<g transform="translate(495.08333333333,625.08333333333) scale(4.4633333333333)"><path d="M0.8,0L0.8,0C2.2,0,6,4.6,6,6l0,0H0V0.8C0,0.4,0.4,0,0.8,0z"/></g>
<g transform="translate(547.08333333333,625.08333333333) scale(4.4633333333333)"><path d="M5.4,2.8C4.5,1.1,2.6-0.1,1.2,0c-1.3,0.1-1.6,1.6-0.7,3.2c1,1.7,2.8,2.9,4.2,2.8C6.1,5.9,6.4,4.4,5.4,2.8z"/></g>
<g transform="translate(625.08333333333,625.08333333333) scale(4.4633333333333)"><path d="M5.4,2.8C4.5,1.1,2.6-0.1,1.2,0c-1.3,0.1-1.6,1.6-0.7,3.2c1,1.7,2.8,2.9,4.2,2.8C6.1,5.9,6.4,4.4,5.4,2.8z"/></g>
<g transform="translate(729.08333333333,625.08333333333) scale(4.4633333333333)"><path d="M6,6H0V2c0-1.1,0.9-2,2-2h4V6z"/></g>
<g transform="translate(755.08333333333,625.08333333333) scale(4.4633333333333)"><rect width="6" height="6"/></g>
<g transform="translate(781.08333333333,625.08333333333) scale(4.4633333333333)"><rect width="6" height="6"/></g>
<g transform="translate(807.08333333333,625.08333333333) scale(4.4633333333333)"><rect width="6" height="6"/></g>
<g transform="translate(833.08333333333,625.08333333333) scale(4.4633333333333)"><path d="M0,0h6v4c0,1.1-0.9,2-2,2H0V0z"/></g>
<g transform="translate(157.08333333333,651.08333333333) scale(4.4633333333333)"><rect width="6" height="6"/></g>
<g transform="translate(261.08333333333,651.08333333333) scale(4.4633333333333)"><path d="M5.2,6L5.2,6C3.8,6,0,1.4,0,0l0,0h6v5.2C6,5.6,5.6,6,5.2,6z"/></g>
<g transform="translate(339.08333333333,651.08333333333) scale(4.4633333333333)"><path d="M0.8,0L0.8,0C2.2,0,6,4.6,6,6l0,0H0V0.8C0,0.4,0.4,0,0.8,0z"/></g>
<g transform="translate(417.08333333333,651.08333333333) scale(4.4633333333333)"><path d="M0,5.2L0,5.2C0,3.8,4.6,0,6,0l0,0v6H0.8C0.4,6,0,5.6,0,5.2z"/></g>
<g transform="translate(443.08333333333,651.08333333333) scale(4.4633333333333)"><path d="M6,0.8L6,0.8C6,2.2,1.4,6,0,6l0,0V0h5.2C5.6,0,6,0.4,6,0.8z"/></g>
<g transform="translate(495.08333333333,651.08333333333) scale(4.4633333333333)"><path d="M6,0v6H2C0.9,6,0,5.1,0,4V0H6z"/></g>
<g transform="translate(521.08333333333,651.08333333333) scale(4.4633333333333)"><path d="M0,6V0h4c1.1,0,2,0.9,2,2v4H0z"/></g>
<g transform="translate(573.08333333333,651.08333333333) scale(4.4633333333333)"><path d="M0.8,0L0.8,0C2.2,0,6,4.6,6,6l0,0H0V0.8C0,0.4,0.4,0,0.8,0z"/></g>
<g transform="translate(677.08333333333,651.08333333333) scale(4.4633333333333)"><path d="M0.8,0L0.8,0C2.2,0,6,4.6,6,6l0,0H0V0.8C0,0.4,0.4,0,0.8,0z"/></g>
<g transform="translate(729.08333333333,651.08333333333) scale(4.4633333333333)"><rect width="6" height="6"/></g>
<g transform="translate(755.08333333333,651.08333333333) scale(4.4633333333333)"><rect width="6" height="6"/></g>
<g transform="translate(781.08333333333,651.08333333333) scale(4.4633333333333)"><rect width="6" height="6"/></g>
<g transform="translate(859.08333333333,651.08333333333) scale(4.4633333333333)"><path d="M0,5.2L0,5.2C0,3.8,4.6,0,6,0l0,0v6H0.8C0.4,6,0,5.6,0,5.2z"/></g>
<g transform="translate(885.08333333333,651.08333333333) scale(4.4633333333333)"><path d="M6,0.8L6,0.8C6,2.2,1.4,6,0,6l0,0V0h5.2C5.6,0,6,0.4,6,0.8z"/></g>
<g transform="translate(157.08333333333,677.08333333333) scale(4.4633333333333)"><path d="M5.2,6L5.2,6C3.8,6,0,1.4,0,0l0,0h6v5.2C6,5.6,5.6,6,5.2,6z"/></g>
<g transform="translate(235.08333333333,677.08333333333) scale(4.4633333333333)"><path d="M5.4,2.8C4.5,1.1,2.6-0.1,1.2,0c-1.3,0.1-1.6,1.6-0.7,3.2c1,1.7,2.8,2.9,4.2,2.8C6.1,5.9,6.4,4.4,5.4,2.8z"/></g>
<g transform="translate(287.08333333333,677.08333333333) scale(4.4633333333333)"><path d="M0,5.2L0,5.2C0,3.8,4.6,0,6,0l0,0v6H0.8C0.4,6,0,5.6,0,5.2z"/></g>
<g transform="translate(313.08333333333,677.08333333333) scale(4.4633333333333)"><rect width="6" height="6"/></g>
<g transform="translate(339.08333333333,677.08333333333) scale(4.4633333333333)"><rect width="6" height="6"/></g>
<g transform="translate(365.08333333333,677.08333333333) scale(4.4633333333333)"><path d="M0,6V0h4c1.1,0,2,0.9,2,2v4H0z"/></g>
<g transform="translate(469.08333333333,677.08333333333) scale(4.4633333333333)"><path d="M0.8,0L0.8,0C2.2,0,6,4.6,6,6l0,0H0V0.8C0,0.4,0.4,0,0.8,0z"/></g>
<g transform="translate(521.08333333333,677.08333333333) scale(4.4633333333333)"><rect width="6" height="6"/></g>
<g transform="translate(573.08333333333,677.08333333333) scale(4.4633333333333)"><path d="M5.2,6L5.2,6C3.8,6,0,1.4,0,0l0,0h6v5.2C6,5.6,5.6,6,5.2,6z"/></g>
<g transform="translate(677.08333333333,677.08333333333) scale(4.4633333333333)"><rect width="6" height="6"/></g>
<g transform="translate(703.08333333333,677.08333333333) scale(4.4633333333333)"><rect width="6" height="6"/></g>
<g transform="translate(729.08333333333,677.08333333333) scale(4.4633333333333)"><rect width="6" height="6"/></g>
<g transform="translate(755.08333333333,677.08333333333) scale(4.4633333333333)"><rect width="6" height="6"/></g>
<g transform="translate(781.08333333333,677.08333333333) scale(4.4633333333333)"><rect width="6" height="6"/></g>
<g transform="translate(833.08333333333,677.08333333333) scale(4.4633333333333)"><path d="M5.4,2.8C4.5,1.1,2.6-0.1,1.2,0c-1.3,0.1-1.6,1.6-0.7,3.2c1,1.7,2.8,2.9,4.2,2.8C6.1,5.9,6.4,4.4,5.4,2.8z"/></g>
<g transform="translate(365.08333333333,703.08333333333) scale(4.4633333333333)"><path d="M5.2,6L5.2,6C3.8,6,0,1.4,0,0l0,0h6v5.2C6,5.6,5.6,6,5.2,6z"/></g>
<g transform="translate(417.08333333333,703.08333333333) scale(4.4633333333333)"><path d="M6,6H0V2c0-1.1,0.9-2,2-2h4V6z"/></g>
<g transform="translate(443.08333333333,703.08333333333) scale(4.4633333333333)"><rect width="6" height="6"/></g>
<g transform="translate(469.08333333333,703.08333333333) scale(4.4633333333333)"><path d="M0,0h6v4c0,1.1-0.9,2-2,2H0V0z"/></g>
<g transform="translate(521.08333333333,703.08333333333) scale(4.4633333333333)"><path d="M6,0v6H2C0.9,6,0,5.1,0,4V0H6z"/></g>
<g transform="translate(547.08333333333,703.08333333333) scale(4.4633333333333)"><path d="M0,6V0h4c1.1,0,2,0.9,2,2v4H0z"/></g>
<g transform="translate(599.08333333333,703.08333333333) scale(4.4633333333333)"><path d="M6,6H0V2c0-1.1,0.9-2,2-2h4V6z"/></g>
<g transform="translate(625.08333333333,703.08333333333) scale(4.4633333333333)"><rect width="6" height="6"/></g>
<g transform="translate(651.08333333333,703.08333333333) scale(4.4633333333333)"><rect width="6" height="6"/></g>
<g transform="translate(677.08333333333,703.08333333333) scale(4.4633333333333)"><rect width="6" height="6"/></g>
<g transform="translate(781.08333333333,703.08333333333) scale(4.4633333333333)"><rect width="6" height="6"/></g>
<g transform="translate(807.08333333333,703.08333333333) scale(4.4633333333333)"><path d="M6,0.8L6,0.8C6,2.2,1.4,6,0,6l0,0V0h5.2C5.6,0,6,0.4,6,0.8z"/></g>
<g transform="translate(859.08333333333,703.08333333333) scale(4.4633333333333)"><path d="M0,5.2L0,5.2C0,3.8,4.6,0,6,0l0,0v6H0.8C0.4,6,0,5.6,0,5.2z"/></g>
<g transform="translate(885.08333333333,703.08333333333) scale(4.4633333333333)"><path d="M6,0.8L6,0.8C6,2.2,1.4,6,0,6l0,0V0h5.2C5.6,0,6,0.4,6,0.8z"/></g>
<g transform="translate(417.08333333333,729.08333333333) scale(4.4633333333333)"><path d="M6,0v6H2C0.9,6,0,5.1,0,4V0H6z"/></g>
<g transform="translate(443.08333333333,729.08333333333) scale(4.4633333333333)"><path d="M0,0h6v4c0,1.1-0.9,2-2,2H0V0z"/></g>
<g transform="translate(547.08333333333,729.08333333333) scale(4.4633333333333)"><rect width="6" height="6"/></g>
<g transform="translate(599.08333333333,729.08333333333) scale(4.4633333333333)"><path d="M6,0v6H2C0.9,6,0,5.1,0,4V0H6z"/></g>
<g transform="translate(625.08333333333,729.08333333333) scale(4.4633333333333)"><rect width="6" height="6"/></g>
<g transform="translate(651.08333333333,729.08333333333) scale(4.4633333333333)"><rect width="6" height="6"/></g>
<g transform="translate(677.08333333333,729.08333333333) scale(4.4633333333333)"><rect width="6" height="6"/></g>
<g transform="translate(729.08333333333,729.08333333333) scale(4.4633333333333)"><path d="M5.4,2.8C4.5,1.1,2.6-0.1,1.2,0c-1.3,0.1-1.6,1.6-0.7,3.2c1,1.7,2.8,2.9,4.2,2.8C6.1,5.9,6.4,4.4,5.4,2.8z"/></g>
<g transform="translate(781.08333333333,729.08333333333) scale(4.4633333333333)"><rect width="6" height="6"/></g>
<g transform="translate(391.08333333333,755.08333333333) scale(4.4633333333333)"><path d="M5.4,2.8C4.5,1.1,2.6-0.1,1.2,0c-1.3,0.1-1.6,1.6-0.7,3.2c1,1.7,2.8,2.9,4.2,2.8C6.1,5.9,6.4,4.4,5.4,2.8z"/></g>
<g transform="translate(495.08333333333,755.08333333333) scale(4.4633333333333)"><path d="M0.8,0L0.8,0C2.2,0,6,4.6,6,6l0,0H0V0.8C0,0.4,0.4,0,0.8,0z"/></g>
<g transform="translate(547.08333333333,755.08333333333) scale(4.4633333333333)"><rect width="6" height="6"/></g>
<g transform="translate(625.08333333333,755.08333333333) scale(4.4633333333333)"><rect width="6" height="6"/></g>
<g transform="translate(651.08333333333,755.08333333333) scale(4.4633333333333)"><rect width="6" height="6"/></g>
<g transform="translate(677.08333333333,755.08333333333) scale(4.4633333333333)"><rect width="6" height="6"/></g>
<g transform="translate(781.08333333333,755.08333333333) scale(4.4633333333333)"><rect width="6" height="6"/></g>
<g transform="translate(807.08333333333,755.08333333333) scale(4.4633333333333)"><path d="M0,6V0h4c1.1,0,2,0.9,2,2v4H0z"/></g>
<g transform="translate(859.08333333333,755.08333333333) scale(4.4633333333333)"><path d="M5.4,2.8C4.5,1.1,2.6-0.1,1.2,0c-1.3,0.1-1.6,1.6-0.7,3.2c1,1.7,2.8,2.9,4.2,2.8C6.1,5.9,6.4,4.4,5.4,2.8z"/></g>
<g transform="translate(365.08333333333,781.08333333333) scale(4.4633333333333)"><path d="M0.8,0L0.8,0C2.2,0,6,4.6,6,6l0,0H0V0.8C0,0.4,0.4,0,0.8,0z"/></g>
<g transform="translate(495.08333333333,781.08333333333) scale(4.4633333333333)"><path d="M6,0v6H2C0.9,6,0,5.1,0,4V0H6z"/></g>
<g transform="translate(521.08333333333,781.08333333333) scale(4.4633333333333)"><rect width="6" height="6"/></g>
<g transform="translate(547.08333333333,781.08333333333) scale(4.4633333333333)"><rect width="6" height="6"/></g>
<g transform="translate(573.08333333333,781.08333333333) scale(4.4633333333333)"><path d="M6,0.8L6,0.8C6,2.2,1.4,6,0,6l0,0V0h5.2C5.6,0,6,0.4,6,0.8z"/></g>
<g transform="translate(625.08333333333,781.08333333333) scale(4.4633333333333)"><path d="M5.2,6L5.2,6C3.8,6,0,1.4,0,0l0,0h6v5.2C6,5.6,5.6,6,5.2,6z"/></g>
<g transform="translate(677.08333333333,781.08333333333) scale(4.4633333333333)"><rect width="6" height="6"/></g>
<g transform="translate(703.08333333333,781.08333333333) scale(4.4633333333333)"><rect width="6" height="6"/></g>
<g transform="translate(729.08333333333,781.08333333333) scale(4.4633333333333)"><rect width="6" height="6"/></g>
<g transform="translate(755.08333333333,781.08333333333) scale(4.4633333333333)"><rect width="6" height="6"/></g>
<g transform="translate(781.08333333333,781.08333333333) scale(4.4633333333333)"><rect width="6" height="6"/></g>
<g transform="translate(807.08333333333,781.08333333333) scale(4.4633333333333)"><rect width="6" height="6"/></g>
<g transform="translate(833.08333333333,781.08333333333) scale(4.4633333333333)"><path d="M0,6V0h4c1.1,0,2,0.9,2,2v4H0z"/></g>
<g transform="translate(885.08333333333,781.08333333333) scale(4.4633333333333)"><path d="M5.4,2.8C4.5,1.1,2.6-0.1,1.2,0c-1.3,0.1-1.6,1.6-0.7,3.2c1,1.7,2.8,2.9,4.2,2.8C6.1,5.9,6.4,4.4,5.4,2.8z"/></g>
<g transform="translate(365.08333333333,807.08333333333) scale(4.4633333333333)"><rect width="6" height="6"/></g>
<g transform="translate(391.08333333333,807.08333333333) scale(4.4633333333333)"><path d="M0,6V0h4c1.1,0,2,0.9,2,2v4H0z"/></g>
<g transform="translate(651.08333333333,807.08333333333) scale(4.4633333333333)"><path d="M6,6H0V2c0-1.1,0.9-2,2-2h4V6z"/></g>
<g transform="translate(677.08333333333,807.08333333333) scale(4.4633333333333)"><rect width="6" height="6"/></g>
<g transform="translate(703.08333333333,807.08333333333) scale(4.4633333333333)"><rect width="6" height="6"/></g>
<g transform="translate(755.08333333333,807.08333333333) scale(4.4633333333333)"><rect width="6" height="6"/></g>
<g transform="translate(807.08333333333,807.08333333333) scale(4.4633333333333)"><rect width="6" height="6"/></g>
<g transform="translate(833.08333333333,807.08333333333) scale(4.4633333333333)"><rect width="6" height="6"/></g>
<g transform="translate(365.08333333333,833.08333333333) scale(4.4633333333333)"><path d="M6,0v6H2C0.9,6,0,5.1,0,4V0H6z"/></g>
<g transform="translate(391.08333333333,833.08333333333) scale(4.4633333333333)"><path d="M0,0h6v4c0,1.1-0.9,2-2,2H0V0z"/></g>
<g transform="translate(469.08333333333,833.08333333333) scale(4.4633333333333)"><path d="M0.8,0L0.8,0C2.2,0,6,4.6,6,6l0,0H0V0.8C0,0.4,0.4,0,0.8,0z"/></g>
<g transform="translate(521.08333333333,833.08333333333) scale(4.4633333333333)"><path d="M0.8,0L0.8,0C2.2,0,6,4.6,6,6l0,0H0V0.8C0,0.4,0.4,0,0.8,0z"/></g>
<g transform="translate(573.08333333333,833.08333333333) scale(4.4633333333333)"><path d="M5.4,2.8C4.5,1.1,2.6-0.1,1.2,0c-1.3,0.1-1.6,1.6-0.7,3.2c1,1.7,2.8,2.9,4.2,2.8C6.1,5.9,6.4,4.4,5.4,2.8z"/></g>
<g transform="translate(625.08333333333,833.08333333333) scale(4.4633333333333)"><path d="M0,5.2L0,5.2C0,3.8,4.6,0,6,0l0,0v6H0.8C0.4,6,0,5.6,0,5.2z"/></g>
<g transform="translate(651.08333333333,833.08333333333) scale(4.4633333333333)"><rect width="6" height="6"/></g>
<g transform="translate(677.08333333333,833.08333333333) scale(4.4633333333333)"><rect width="6" height="6"/></g>
<g transform="translate(703.08333333333,833.08333333333) scale(4.4633333333333)"><rect width="6" height="6"/></g>
<g transform="translate(729.08333333333,833.08333333333) scale(4.4633333333333)"><rect width="6" height="6"/></g>
<g transform="translate(755.08333333333,833.08333333333) scale(4.4633333333333)"><rect width="6" height="6"/></g>
<g transform="translate(781.08333333333,833.08333333333) scale(4.4633333333333)"><rect width="6" height="6"/></g>
<g transform="translate(807.08333333333,833.08333333333) scale(4.4633333333333)"><rect width="6" height="6"/></g>
<g transform="translate(833.08333333333,833.08333333333) scale(4.4633333333333)"><rect width="6" height="6"/></g>
<g transform="translate(859.08333333333,833.08333333333) scale(4.4633333333333)"><path d="M0,6V0h4c1.1,0,2,0.9,2,2v4H0z"/></g>
<g transform="translate(417.08333333333,859.08333333333) scale(4.4633333333333)"><path d="M0.8,0L0.8,0C2.2,0,6,4.6,6,6l0,0H0V0.8C0,0.4,0.4,0,0.8,0z"/></g>
<g transform="translate(469.08333333333,859.08333333333) scale(4.4633333333333)"><path d="M6,0v6H2C0.9,6,0,5.1,0,4V0H6z"/></g>
<g transform="translate(495.08333333333,859.08333333333) scale(4.4633333333333)"><rect width="6" height="6"/></g>
<g transform="translate(521.08333333333,859.08333333333) scale(4.4633333333333)"><rect width="6" height="6"/></g>
<g transform="translate(547.08333333333,859.08333333333) scale(4.4633333333333)"><path d="M0,6V0h4c1.1,0,2,0.9,2,2v4H0z"/></g>
<g transform="translate(677.08333333333,859.08333333333) scale(4.4633333333333)"><path d="M5.2,6L5.2,6C3.8,6,0,1.4,0,0l0,0h6v5.2C6,5.6,5.6,6,5.2,6z"/></g>
<g transform="translate(729.08333333333,859.08333333333) scale(4.4633333333333)"><path d="M5.2,6L5.2,6C3.8,6,0,1.4,0,0l0,0h6v5.2C6,5.6,5.6,6,5.2,6z"/></g>
<g transform="translate(781.08333333333,859.08333333333) scale(4.4633333333333)"><rect width="6" height="6"/></g>
<g transform="translate(807.08333333333,859.08333333333) scale(4.4633333333333)"><rect width="6" height="6"/></g>
<g transform="translate(859.08333333333,859.08333333333) scale(4.4633333333333)"><path d="M5.2,6L5.2,6C3.8,6,0,1.4,0,0l0,0h6v5.2C6,5.6,5.6,6,5.2,6z"/></g>
<g transform="translate(417.08333333333,885.08333333333) scale(4.4633333333333)"><path d="M5.2,6L5.2,6C3.8,6,0,1.4,0,0l0,0h6v5.2C6,5.6,5.6,6,5.2,6z"/></g>
<g transform="translate(547.08333333333,885.08333333333) scale(4.4633333333333)"><path d="M6,0v6H2C0.9,6,0,5.1,0,4V0H6z"/></g>
<g transform="translate(573.08333333333,885.08333333333) scale(4.4633333333333)"><rect width="6" height="6"/></g>
<g transform="translate(599.08333333333,885.08333333333) scale(4.4633333333333)"><path d="M6,0.8L6,0.8C6,2.2,1.4,6,0,6l0,0V0h5.2C5.6,0,6,0.4,6,0.8z"/></g>
<g transform="translate(651.08333333333,885.08333333333) scale(4.4633333333333)"><path d="M5.4,2.8C4.5,1.1,2.6-0.1,1.2,0c-1.3,0.1-1.6,1.6-0.7,3.2c1,1.7,2.8,2.9,4.2,2.8C6.1,5.9,6.4,4.4,5.4,2.8z"/></g>
<g transform="translate(781.08333333333,885.08333333333) scale(4.4633333333333)"><path d="M6,0v6H2C0.9,6,0,5.1,0,4V0H6z"/></g>
<g transform="translate(807.08333333333,885.08333333333) scale(4.4633333333333)"><rect width="6" height="6"/></g>
<g transform="translate(833.08333333333,885.08333333333) scale(4.4633333333333)"><path d="M6,0.8L6,0.8C6,2.2,1.4,6,0,6l0,0V0h5.2C5.6,0,6,0.4,6,0.8z"/></g>
</g><g fill="#000000" transform="scale(44.506944444444)"><path d="M0,6h1.7v19.3h20.7V6H24l-1-2l1-2h-1V0H1v2H0l1,2L0,6z M22,25H2V6V5h20v1V25z"/></g>
<g transform="translate(0,132.52083333333)"><g transform="translate(157.08333333333,157.08333333333)"  fill="#000000"><g transform="scale(13)"><path d="M0,0l0,7c0,3.9,3.1,7,7,7h7V7c0-3.9-3.1-7-7-7H0z M7,12L7,12c-2.8,0-5-2.2-5-5v0c0-2.8,2.2-5,5-5h0c2.8,0,5,2.2,5,5v0 C12,9.8,9.8,12,7,12z"/></g></g>
<g transform="translate(729.08333333333,157.08333333333)"  fill="#000000"><g transform="scale(13) rotate(90 7 7)"><path d="M0,0l0,7c0,3.9,3.1,7,7,7h7V7c0-3.9-3.1-7-7-7H0z M7,12L7,12c-2.8,0-5-2.2-5-5v0c0-2.8,2.2-5,5-5h0c2.8,0,5,2.2,5,5v0 C12,9.8,9.8,12,7,12z"/></g></g>
<g transform="translate(157.08333333333,729.08333333333)"  fill="#000000"><g transform="scale(13) rotate(-90 7 7)"><path d="M0,0l0,7c0,3.9,3.1,7,7,7h7V7c0-3.9-3.1-7-7-7H0z M7,12L7,12c-2.8,0-5-2.2-5-5v0c0-2.8,2.2-5,5-5h0c2.8,0,5,2.2,5,5v0 C12,9.8,9.8,12,7,12z"/></g></g>
<g transform="translate(209.08333333333,209.08333333333)"  fill="#000000"><g transform="scale(13)"><polygon points="3,5.1 3.9,6 6,6 6,3.9 5.1,3 6,2.1 6,0 3.9,0 3,0.9 2.1,0 0,0 0,2.1 0.9,3 0,3.9 0,6 2.1,6"/></g></g>
<g transform="translate(781.08333333333,209.08333333333)"  fill="#000000"><g transform="scale(13)"><polygon points="3,5.1 3.9,6 6,6 6,3.9 5.1,3 6,2.1 6,0 3.9,0 3,0.9 2.1,0 0,0 0,2.1 0.9,3 0,3.9 0,6 2.1,6"/></g></g>
<g transform="translate(209.08333333333,781.08333333333)"  fill="#000000"><g transform="scale(13)"><polygon points="3,5.1 3.9,6 6,6 6,3.9 5.1,3 6,2.1 6,0 3.9,0 3,0.9 2.1,0 0,0 0,2.1 0.9,3 0,3.9 0,6 2.1,6"/></g></g></g>
<text fill="#FFFFFF" font-family="Arial, Helvetica, sans-serif" font-size="89.904027777778px" text-anchor="middle" x="525.625" y="145.84583333333">Curriculum</text></svg>